<svg width="240" height="45" viewBox="0 0 240 45" fill="none" xmlns="http://www.w3.org/2000/svg">
<path d="M0.92875 0.199997H7.71275L10.8488 34.632H10.9768L14.3048 0.199997H21.9848L25.3128 34.632H25.4408L28.5768 0.199997H34.6568L30.1128 45H21.3448L18.1448 14.792H18.0168L14.8168 45H5.47275L0.92875 0.199997ZM38.7178 0.199997H57.9178V6.6H45.7578V18.44H55.4218V24.84H45.7578V38.6H57.9178V45H38.7178V0.199997ZM67.9078 0.199997H77.4438L84.7398 45H77.6998L76.4198 36.104V36.232H68.4198L67.1398 45H60.6118L67.9078 0.199997ZM75.5878 30.152L72.4518 8.008H72.3238L69.2517 30.152H75.5878ZM88.6553 0.199997H99.0873C102.714 0.199997 105.359 1.05333 107.023 2.76C108.687 4.424 109.519 7.00533 109.519 10.504V13.256C109.519 17.9067 107.983 20.8507 104.911 22.088V22.216C106.618 22.728 107.813 23.7733 108.495 25.352C109.221 26.9307 109.583 29.0427 109.583 31.688V39.56C109.583 40.84 109.626 41.8853 109.711 42.696C109.797 43.464 110.01 44.232 110.351 45H103.183C102.927 44.2747 102.757 43.592 102.671 42.952C102.586 42.312 102.543 41.16 102.543 39.496V31.304C102.543 29.256 102.202 27.8267 101.519 27.016C100.879 26.2053 99.7486 25.8 98.1273 25.8H95.6953V45H88.6553V0.199997ZM98.2553 19.4C99.6633 19.4 100.709 19.0373 101.391 18.312C102.117 17.5867 102.479 16.3707 102.479 14.664V11.208C102.479 9.58666 102.181 8.41333 101.583 7.688C101.029 6.96267 100.133 6.6 98.8953 6.6H95.6953V19.4H98.2553ZM125.718 0.199997H136.15C139.776 0.199997 142.422 1.05333 144.086 2.76C145.75 4.424 146.582 7.00533 146.582 10.504V13.256C146.582 17.9067 145.046 20.8507 141.974 22.088V22.216C143.68 22.728 144.875 23.7733 145.558 25.352C146.283 26.9307 146.646 29.0427 146.646 31.688V39.56C146.646 40.84 146.688 41.8853 146.774 42.696C146.859 43.464 147.072 44.232 147.414 45H140.246C139.99 44.2747 139.819 43.592 139.734 42.952C139.648 42.312 139.606 41.16 139.606 39.496V31.304C139.606 29.256 139.264 27.8267 138.582 27.016C137.942 26.2053 136.811 25.8 135.19 25.8H132.758V45H125.718V0.199997ZM135.318 19.4C136.726 19.4 137.771 19.0373 138.454 18.312C139.179 17.5867 139.542 16.3707 139.542 14.664V11.208C139.542 9.58666 139.243 8.41333 138.646 7.688C138.091 6.96267 137.195 6.6 135.958 6.6H132.758V19.4H135.318ZM157.47 0.199997H167.006L174.302 45H167.262L165.982 36.104V36.232H157.982L156.702 45H150.174L157.47 0.199997ZM165.15 30.152L162.014 8.008H161.886L158.814 30.152H165.15ZM178.218 0.199997H188.65C192.276 0.199997 194.922 1.05333 196.586 2.76C198.25 4.424 199.082 7.00533 199.082 10.504V13.256C199.082 17.9067 197.546 20.8507 194.474 22.088V22.216C196.18 22.728 197.375 23.7733 198.058 25.352C198.783 26.9307 199.146 29.0427 199.146 31.688V39.56C199.146 40.84 199.188 41.8853 199.274 42.696C199.359 43.464 199.572 44.232 199.914 45H192.746C192.49 44.2747 192.319 43.592 192.234 42.952C192.148 42.312 192.106 41.16 192.106 39.496V31.304C192.106 29.256 191.764 27.8267 191.082 27.016C190.442 26.2053 189.311 25.8 187.69 25.8H185.258V45H178.218V0.199997ZM187.818 19.4C189.226 19.4 190.271 19.0373 190.954 18.312C191.679 17.5867 192.042 16.3707 192.042 14.664V11.208C192.042 9.58666 191.743 8.41333 191.146 7.688C190.591 6.96267 189.695 6.6 188.458 6.6H185.258V19.4H187.818ZM204.53 0.199997H211.57V45H204.53V0.199997ZM217.343 0.199997H226.175L233.023 27.016H233.151V0.199997H239.423V45H232.191L223.743 12.296H223.615V45H217.343V0.199997Z" fill="white"/>
</svg>
